<svg width="500" height="75" version="1.1" viewBox="0 0 500 75" xmlns="http://www.w3.org/2000/svg">
 <path d="m499.65 46.652-25.944-44.508c-0.6849-1.2236-1.5751-1.8354-3.0133-1.9038h-32.788c-1.3012 0-2.2599 0.68027-3.1502 1.6322l-41.62 44.576c-1.1642 0.81495-0.6848 2.8535 0.8903 2.9882h19.851c0.4794 0 0.6848 0.47709 0.4109 0.81723l-19.988 21.269c-1.0272 1.2213-0.6163 2.5134 1.0934 2.5134h13.418c0.8218 0 1.6436-0.34014 2.3285-1.0204l21.152-22.559c0.4109-0.34014 0.2054-1.0204-0.4109-1.0204h-11.364c-0.4794-0.0663-0.6848-0.67799-0.4109-0.94965l22.18-23.784c0.6848-0.88344 2.0521-0.94964 2.6684 0l13.898 23.784c0.2054 0.40634 0 0.88344-0.4794 0.94965h-11.638c-0.6848 0-0.8903 0.68027-0.5479 1.292l12.528 21.54c0.8218 1.292 1.7097 1.7669 3.2163 1.7669h25.67c1.7121 0 2.4654-1.5637 1.6436-2.9905l-12.186-20.86c-0.137-0.34014 0-0.74875 0.4109-0.74875h20.742c1.5751 0 2.2599-1.4929 1.4381-2.785m-39.976-23.716h-31.491c-0.477 0-0.751-0.6095-0.4109-1.0181l18.552-19.842c0.6848-0.81495 2.0545-1.0181 2.6709 0l11.361 19.639c0.3424 0.5433-0.068 1.2213-0.6824 1.2213" fill="#b9a557"/>
 <path d="m178.26 47.195c0-16.852 10.884-25.754 18.892-25.754h21.497l2.0521-10.802h-21.289c-20.81 0-38.883 13.93-38.883 36.694 0 15.763 9.1061 26.567 26.355 26.567h21.974l2.0545-10.736h-21.769c-7.9417 0-10.884-9.5809-10.884-15.968m106.72-36.557-11.98 63.261h38.266l1.986-10.736h-20.947l3.2165-16.92h17.046l1.986-10.736h-17.046l2.6685-14.067h17.525l2.0545-10.802zm57.433 52.525h-4.5177l7.8049-41.723h4.7915c6.9146 0 10.884 7.8163 10.884 15.97 0 16.783-10.884 25.752-18.963 25.752m-97.546-23.919h-5.1363l3.4242-17.803h4.5177c3.6273 0 6.709 3.6707 6.709 7.4761 0 5.8439-4.7914 10.327-9.5146 10.327m13.142 6.5927c5.9559-2.922 13.487-8.0879 13.487-19.096 0-6.7274-4.4514-16.103-17.936-16.103h-25.464l-11.98 63.261h17.251l4.5175-23.919h4.9286l6.5037 23.988h18.892zm94.74-35.198h-22.246l-11.912 63.261h21.563c20.878 0 38.88-13.861 38.88-36.694 0-15.696-9.1037-26.567-26.286-26.567" fill="#b9a557"/>
 <path d="m135.61 10.706h13.144v63.263h-13.213zm-60.172 0h-9.9941v63.263h10.268v-46.274l37.719 46.274h10.336v-63.263h-10.747v46.409zm-34.774 34.655c-0.27393 14.133-3.0133 22.355-13.624 22.355h-0.27394c-10.61 0-13.347-8.2226-13.69-22.355v-34.655h-13.076v38.664c0 13.658 5.0678 21.881 16.84 24.599 4.0405 0.94963 15.539 1.1551 19.579 0 12.252-2.4472 17.317-10.941 17.317-24.599v-38.664h-13.074z" fill="#004a35"/>
</svg>
